<?xml version="1.0" standalone="no"?>
<!DOCTYPE svg PUBLIC "-//W3C//DTD SVG 20010904//EN"
 "http://www.w3.org/TR/2001/REC-SVG-20010904/DTD/svg10.dtd">
<svg version="1.0" xmlns="http://www.w3.org/2000/svg"
 width="225.000000pt" height="225.000000pt" viewBox="0 0 225.000000 225.000000"
 preserveAspectRatio="xMidYMid meet">
<metadata>
Created by potrace 1.14, written by Peter Selinger 2001-2017
</metadata>
<g transform="translate(0.000000,225.000000) scale(0.100000,-0.100000)"
fill="#000000" stroke="none">
<path d="M110 2059 c-14 -6 -36 -20 -48 -32 -54 -50 -52 -25 -52 -753 l0 -677
25 -42 c47 -80 -31 -75 1097 -75 976 0 1004 1 1032 20 17 10 40 36 53 57 l23
38 0 681 0 681 -23 34 c-12 18 -38 44 -56 56 l-34 23 -996 -1 c-637 0 -1005
-4 -1021 -10z m2007 -125 c10 -14 13 -142 13 -616 l0 -598 -214 0 -214 0 -124
130 c-67 72 -124 134 -126 139 -2 5 11 29 28 53 61 84 90 177 90 294 0 253
-181 459 -437 496 -70 10 -93 9 -158 -5 -173 -37 -307 -146 -373 -304 -116
-275 47 -601 339 -678 111 -30 251 -15 352 37 l49 24 66 -70 c37 -39 76 -81
86 -93 l19 -23 -696 0 -697 0 0 598 c0 463 3 602 12 615 17 22 33 22 1093 20
829 -1 880 -2 892 -19z m-941 -188 c163 -43 284 -176 315 -345 32 -180 -64
-367 -231 -449 -132 -65 -251 -64 -386 3 -307 151 -309 592 -4 754 32 17 75
35 96 40 59 14 153 12 210 -3z m-18 -1116 c26 -24 28 -47 6 -78 -18 -26 -65
-30 -88 -6 -24 23 -20 70 6 88 30 21 50 20 76 -4z"/>
<path d="M770 1463 c0 -5 23 -83 52 -175 l53 -168 60 0 61 0 28 95 c16 52 32
93 35 90 4 -2 20 -45 36 -95 l29 -91 60 3 60 3 46 146 c26 80 50 158 54 173
l7 27 -58 -3 -57 -3 -24 -95 c-13 -52 -26 -98 -30 -102 -4 -4 -21 40 -37 98
l-30 105 -55 -3 -54 -3 -31 -97 c-16 -53 -33 -99 -36 -102 -3 -4 -12 20 -19
51 -7 32 -19 79 -27 105 l-14 48 -54 0 c-30 0 -55 -3 -55 -7z"/>
<path d="M874 437 c-3 -8 -4 -43 -2 -78 l3 -64 245 0 245 0 0 75 0 75 -243 3
c-198 2 -243 0 -248 -11z"/>
<path d="M730 255 c0 -13 53 -15 415 -15 362 0 415 2 415 15 0 13 -53 15 -415
15 -362 0 -415 -2 -415 -15z"/>
</g>
</svg>
